<?xml version="1.0" encoding="UTF-8"?>
<svg id="Layer_1" data-name="Layer 1" xmlns="http://www.w3.org/2000/svg" viewBox="0 0 467.85 449.75">
  <defs>
    <style>
      .cls-1, .cls-2 {
        fill: #fff;
      }

      .cls-3 {
        fill: #2bb673;
      }

      .cls-4 {
        fill: #2b3990;
        stroke-width: 10px;
      }

      .cls-4, .cls-2, .cls-5 {
        stroke: #fff;
        stroke-miterlimit: 10;
      }

      .cls-2, .cls-5 {
        stroke-width: 3px;
      }

      .cls-5 {
        fill: #e6e7e8;
      }
    </style>
  </defs>
  <path class="cls-4" d="M238.47,444.64c4.03,6.81-375.73-281.76-174.76-421.03,89.52-62.04,174.76,50.98,174.76,50.98,0,0,64.17-108.84,164.29-51.63,201.29,115.02-168.01,423.69-164.29,421.69Z"/>
  <path class="cls-5" d="M199.44,182.11s-35.67-4.82-49.01,16.86c-13.34,21.67-2.67,43.23-49.01,81.96,0,0,29.34,5.06,53.68-16.62,28.71-25.56,10-55.35,44.34-82.2Z"/>
  <path class="cls-5" d="M277.09,281.44h-33.62l-54.61-157.83,13.61-47.86c.94-2.06,1.78-5.08,2.18-3.37l72.44,209.06Z"/>
  <path class="cls-5" d="M327.74,278.82l-69.71-93.4s12.04-9.57,18.18-19.25c11.64-18.36,18.48-84.16,75.02-88.16,0,0-13.92,5.51-15.35,30.16-1.21,20.98,.42,44.56-44.83,71.86l72.98,98.62-36.3,.17Z"/>
  <g>
    <path class="cls-3" d="M237.11,443.57c-1.28-1.11-3.74-3.03-8.54-6.76-20.39-15.86-73.9-57.49-108.45-99.98l90.15,1.07,5.04-9.91,13.81,46.63,14.28-57.67,6.63,21.04,93.42,1.07c-10.57,12.37-70.21,73.76-106.35,104.52Z"/>
    <path class="cls-1" d="M243.58,322.48l4.7,14.91,.65,2.07,2.17,.02,89.03,1.02c-14.54,16.08-68.66,71.66-103.04,101.1-1.54-1.27-3.92-3.12-7.6-5.98-19.95-15.52-71.69-55.77-106.17-97.26l86,1.02,1.86,.02,.85-1.66,2.91-5.73,11.17,37.73,3.13,10.59,2.65-10.72,11.67-47.13m-.35-11.08l-14.24,57.49-13.31-44.95-6.33,12.44-92.4-1.09c44.22,55.62,120.98,109.41,120.04,110.34,39.99-33.8,110.7-107.43,109.37-108.04l-95.24-1.09-7.91-25.09h0Zm-6.23,134.23s0,0,0,0c0,0,0,0,0,0h0Z"/>
  </g>
  <polyline class="cls-2" points="114.9 338.17 113.4 332.39 115.57 333.79 118.15 336.8 114.93 339.5"/>
  <polygon class="cls-2" points="347.51 336.19 347.51 336.08 253.36 335 244.18 305.86 229.99 363.17 217.18 319.91 209.56 334.87 116.7 333.79 116.69 333.94 119.18 336.82 211.39 337.89 216.44 327.98 230.24 374.61 244.53 316.94 251.16 337.98 345.37 339.06 347.51 336.19"/>
</svg>